<svg width="67" height="53" viewBox="0 0 67 53" fill="none" xmlns="http://www.w3.org/2000/svg">
<circle cx="33" cy="28" r="25" fill="#68B738"/>
<g clip-path="url(#clip0)">
<path d="M43.2034 0H43.008C42.6778 0.187081 42.415 0.473924 42.2571 0.819588C41.968 1.37738 41.7453 1.96735 41.5937 2.57732C41.5612 2.76073 41.4688 2.92811 41.331 3.05315C41.1932 3.17818 41.0179 3.25377 40.8326 3.26804C40.2658 3.36597 39.7288 3.59243 39.2626 3.93012C38.7965 4.26781 38.4135 4.7078 38.1429 5.21649C37.7708 5.87697 37.4526 6.5665 37.1914 7.27835C36.4611 9.17526 35.9006 11.134 35.2114 13.0464C34.8874 13.9175 34.872 13.9175 33.8949 13.9175C32.7274 13.9175 32.8097 13.7371 32.7943 15.0258C32.7943 15.433 32.9177 15.6392 33.3497 15.6186C33.4834 15.6186 33.684 15.5515 33.7354 15.7268C33.7869 15.9021 33.612 15.9794 33.5091 16.0825C32.8994 16.7029 32.1276 17.1388 31.2823 17.3402C30.3051 17.6031 29.3074 17.8093 28.356 18.1289C25.9131 18.9485 23.6554 20.0928 21.8966 22.0309C20.8681 23.2347 20.0445 24.6001 19.4589 26.0722C17.5714 30.5258 16.656 35.2165 15.9463 39.9536C15.612 42.1753 15.3754 44.4072 15.1954 46.6546C15.1029 47.7577 15 48.8763 15 50H32.1411C32.1696 49.7731 32.1283 49.543 32.0229 49.3402C31.858 48.9289 31.5901 48.5672 31.2451 48.29C30.9 48.0128 30.4895 47.8295 30.0531 47.7577C29.6931 47.6753 29.652 47.567 29.8731 47.2835C30.2338 46.801 30.5103 46.2607 30.6909 45.6856C31.5291 43.2062 31.8531 40.6186 32.2594 38.0567C32.4889 36.0999 33.0894 34.2051 34.0286 32.4742C34.7611 31.2002 35.7382 30.0842 36.9034 29.1907C37.3303 28.866 37.3457 28.866 37.4177 29.4175C37.4691 29.7835 37.4794 30.1598 37.5051 30.5309C37.6595 32.9662 37.6285 35.4097 37.4126 37.8402C37.2184 39.7242 37.1926 41.6217 37.3354 43.5103C37.5399 45.7029 37.9304 47.8739 38.5029 50H45.3429C45.2536 49.442 44.9973 48.9243 44.6078 48.5156C44.2184 48.1069 43.7143 47.8264 43.1623 47.7113C42.5177 47.6087 41.8587 47.6438 41.2286 47.8144C40.92 47.8866 40.7914 47.8144 40.7657 47.4794C40.5529 44.7505 40.7261 42.0051 41.28 39.3247C41.966 36.2304 42.4912 33.1025 42.8537 29.9536C42.9887 28.6819 43.3881 27.4528 44.0263 26.3454C44.6383 25.2526 45.1731 24.1186 45.7749 23.0206C46.0138 22.6214 46.1575 22.1723 46.195 21.7083C46.2325 21.2443 46.1626 20.7779 45.9909 20.3454C45.852 19.9794 45.7183 19.6082 45.5486 19.2577C45.0343 18.2526 44.52 17.2577 44.0469 16.2423C43.7949 15.7268 43.8514 15.6649 44.412 15.6495C45.2503 15.6495 45.2503 15.6495 45.2657 14.8041C45.2657 14.6907 45.2657 14.5773 45.2657 14.4639C45.2657 14.1082 45.132 13.9124 44.7514 13.9485C44.4943 13.9485 44.2371 13.9485 43.9697 13.9485C43.6149 13.9485 43.512 13.799 43.5994 13.433C43.7729 12.838 44.1142 12.306 44.5823 11.9009C45.0503 11.4958 45.6252 11.2349 46.2377 11.1495C47.3772 11.0505 48.5251 11.1252 49.6423 11.3711C49.7712 11.4118 49.9109 11.4001 50.0312 11.3383C50.1515 11.2766 50.2427 11.1699 50.2851 11.0412C50.4909 10.5258 50.7171 10.0103 50.9486 9.49484C51.001 9.40339 51.0242 9.29801 51.015 9.19293C51.0058 9.08785 50.9647 8.98812 50.8971 8.90722C49.2514 6.81443 47.4669 4.86082 45.0343 3.60825C44.9168 3.55754 44.8138 3.47814 44.7347 3.3773C44.6557 3.27646 44.6031 3.15738 44.5817 3.03093C44.444 2.29408 44.225 1.57487 43.9286 0.886598C43.7895 0.519904 43.5349 0.20865 43.2034 0V0Z" fill="black"/>
</g>
<defs>
<clipPath id="clip0">
<rect width="36" height="50" fill="white" transform="translate(15)"/>
</clipPath>
</defs>
</svg>
